<?xml version="1.0" encoding="UTF-8" standalone="no" ?>
<!DOCTYPE svg PUBLIC "-//W3C//DTD SVG 1.1//EN" "http://www.w3.org/Graphics/SVG/1.1/DTD/svg11.dtd">
<svg xmlns="http://www.w3.org/2000/svg" xmlns:xlink="http://www.w3.org/1999/xlink" version="1.1" width="1080" height="1080" viewBox="0 0 1080 1080" xml:space="preserve">
<desc>Created with Fabric.js 5.2.4</desc>
<defs>
</defs>
<g transform="matrix(1 0 0 1 540 540)" id="f1dafed7-4f33-43de-9861-a1bd07847b24"  >
</g>
<g transform="matrix(1 0 0 1 540 540)" id="6b8d5194-58b1-4c33-ab67-db1098d52e6b"  >
<rect style="stroke: none; stroke-width: 1; stroke-dasharray: none; stroke-linecap: butt; stroke-dashoffset: 0; stroke-linejoin: miter; stroke-miterlimit: 4; fill: rgb(255,255,255); fill-rule: nonzero; opacity: 1; visibility: hidden;" vector-effect="non-scaling-stroke"  x="-540" y="-540" rx="0" ry="0" width="1080" height="1080" />
</g>
<g transform="matrix(0.35 0.07 -0.07 0.35 520.38 522.81)" id="Layer_1"  >
<rect style="stroke: none; stroke-width: 1; stroke-dasharray: none; stroke-linecap: butt; stroke-dashoffset: 0; stroke-linejoin: miter; stroke-miterlimit: 4; fill: rgb(176,178,180); fill-rule: nonzero; opacity: 1;" vector-effect="non-scaling-stroke"  x="-1035.04575" y="-1035.04575" rx="448.00086" ry="448.00086" width="2070.0915" height="2070.0915" />
</g>
<g transform="matrix(0.36 0.04 -0.04 0.36 520.38 522.81)" id="Layer_1"  >
<rect style="stroke: none; stroke-width: 1; stroke-dasharray: none; stroke-linecap: butt; stroke-dashoffset: 0; stroke-linejoin: miter; stroke-miterlimit: 4; fill: rgb(135,137,140); fill-rule: nonzero; opacity: 1;" vector-effect="non-scaling-stroke"  x="-1007.32175" y="-1007.32175" rx="436.00103" ry="436.00103" width="2014.6435" height="2014.6435" />
</g>
<g transform="matrix(0.36 0 0 0.36 520.38 522.81)" id="Layer_1"  >
<rect style="stroke: none; stroke-width: 1; stroke-dasharray: none; stroke-linecap: butt; stroke-dashoffset: 0; stroke-linejoin: miter; stroke-miterlimit: 4; fill: rgb(255,255,255); fill-rule: nonzero; opacity: 1;" vector-effect="non-scaling-stroke"  x="-977.265845" y="-977.265845" rx="422.99187" ry="422.99187" width="1954.53169" height="1954.53169" />
</g>
<g transform="matrix(0.36 0 0 0.36 456.68 459.11)" id="Layer_1"  >
<path style="stroke: none; stroke-width: 1; stroke-dasharray: none; stroke-linecap: butt; stroke-dashoffset: 0; stroke-linejoin: miter; stroke-miterlimit: 4; fill: rgb(0,0,0); fill-rule: nonzero; opacity: 1;" vector-effect="non-scaling-stroke"  transform=" translate(-1268.55, -1275.3)" d="M 1268.545 1170.37055 L 1268.54521 1170.37055 C 1326.4952331032614 1170.3705665685393 1373.4730000000022 1217.348346896736 1373.473 1275.29837 L 1373.473 1275.2986 C 1373.473 1333.2486679560757 1326.4951879560756 1380.22648 1268.54512 1380.22648 L 1268.54491 1380.22648 C 1240.7163192409196 1380.22648 1214.0275151084218 1369.1716153648003 1194.3497298718107 1349.4938301281893 C 1174.6719446351997 1329.8160448915783 1163.61708 1303.1272407590805 1163.61708 1275.29865 L 1163.61708 1275.29844 C 1163.6170799999989 1247.469828130099 1174.6719550747437 1220.7810041899697 1194.349758052005 1201.1032068388001 C 1214.027561029266 1181.4254094876305 1240.7163881301 1170.370542043504 1268.545 1170.37055 Z" stroke-linecap="round" />
</g>
<g transform="matrix(0.36 0 0 0.36 592.66 459.11)" id="Layer_1"  >
<path style="stroke: none; stroke-width: 1; stroke-dasharray: none; stroke-linecap: butt; stroke-dashoffset: 0; stroke-linejoin: miter; stroke-miterlimit: 4; fill: rgb(0,0,0); fill-rule: nonzero; opacity: 1;" vector-effect="non-scaling-stroke"  transform=" translate(-1646.29, -1275.3)" d="M 1646.28563 1170.37055 L 1646.28584 1170.37055 C 1704.2358748189904 1170.37055 1751.21366 1217.3483351810096 1751.21366 1275.29837 L 1751.21366 1275.2986 C 1751.21366 1333.2486679560757 1704.2358479560755 1380.22648 1646.28578 1380.22648 L 1646.28557 1380.22648 C 1618.4569792409195 1380.22648 1591.7681751084217 1369.1716153648003 1572.0903898718107 1349.4938301281893 C 1552.4126046351996 1329.8160448915783 1541.35774 1303.1272407590805 1541.35774 1275.29865 L 1541.35774 1275.29844 C 1541.35774 1217.348366521077 1588.3355565210768 1170.37055 1646.2856299999999 1170.37055 Z" stroke-linecap="round" />
</g>
<g transform="matrix(0.36 0 0 0.36 698.43 459.11)" id="Layer_1"  >
<path style="stroke: none; stroke-width: 1; stroke-dasharray: none; stroke-linecap: butt; stroke-dashoffset: 0; stroke-linejoin: miter; stroke-miterlimit: 4; fill: rgb(0,0,0); fill-rule: nonzero; opacity: 1;" vector-effect="non-scaling-stroke"  transform=" translate(-1940.08, -1275.3)" d="M 1940.08394 1212.34176 L 1940.0840699999999 1212.34176 C 1956.7812090728917 1212.34176 1972.7944767998636 1218.9746726704232 1984.6011370647202 1230.7813329352798 C 1996.4077973295769 1242.5879932001365 2003.04071 1258.6012609271083 2003.04071 1275.2984000000001 L 2003.04071 1275.2986300000002 C 2003.04071 1291.995769072892 1996.4077973295769 1308.009036799864 1984.6011370647202 1319.8156970647206 C 1972.7944767998636 1331.6223573295772 1956.7812090728917 1338.2552700000003 1940.0840699999999 1338.2552700000003 L 1940.08394 1338.2552700000003 C 1905.3139202131752 1338.2552700000003 1877.12725 1310.0685997868252 1877.12725 1275.2985800000004 L 1877.12725 1275.2984500000005 C 1877.12725 1240.5284302131756 1905.3139202131752 1212.3417600000005 1940.08394 1212.3417600000005 Z" stroke-linecap="round" />
</g>
<g transform="matrix(0.36 0 0 0.36 773.98 459.11)" id="Layer_1"  >
<rect style="stroke: none; stroke-width: 1; stroke-dasharray: none; stroke-linecap: butt; stroke-dashoffset: 0; stroke-linejoin: miter; stroke-miterlimit: 4; fill: rgb(0,0,0); fill-rule: nonzero; opacity: 1;" vector-effect="non-scaling-stroke"  x="-20.98556" y="-20.98557" rx="20.98554" ry="20.98554" width="41.97112" height="41.97114" />
</g>
<g transform="matrix(0.36 0 0 0.36 698.43 579.98)" id="Layer_1"  >
<path style="stroke: none; stroke-width: 1; stroke-dasharray: none; stroke-linecap: butt; stroke-dashoffset: 0; stroke-linejoin: miter; stroke-miterlimit: 4; fill: rgb(0,0,0); fill-rule: nonzero; opacity: 1;" vector-effect="non-scaling-stroke"  transform=" translate(-1940.08, -1611.07)" d="M 1940.08394 1548.11122 L 1940.0840699999999 1548.11122 C 1956.7812090728917 1548.11122 1972.7944767998636 1554.7441326704231 1984.6011370647202 1566.5507929352798 C 1996.4077973295769 1578.3574532001364 2003.04071 1594.3707209271083 2003.04071 1611.06786 L 2003.04071 1611.0680900000002 C 2003.04071 1627.765229072892 1996.4077973295769 1643.778496799864 1984.6011370647202 1655.5851570647205 C 1972.7944767998636 1667.3918173295772 1956.7812090728917 1674.0247300000003 1940.0840699999999 1674.0247300000003 L 1940.08394 1674.0247300000003 C 1905.3139202131752 1674.0247300000003 1877.12725 1645.8380597868252 1877.12725 1611.0680400000003 L 1877.12725 1611.0679100000004 C 1877.12725 1576.2978902131756 1905.3139202131752 1548.1112200000005 1940.08394 1548.1112200000005 Z" stroke-linecap="round" />
</g>
<g transform="matrix(0.36 0 0 0.36 773.98 579.98)" id="Layer_1"  >
<path style="stroke: none; stroke-width: 1; stroke-dasharray: none; stroke-linecap: butt; stroke-dashoffset: 0; stroke-linejoin: miter; stroke-miterlimit: 4; fill: rgb(0,0,0); fill-rule: nonzero; opacity: 1;" vector-effect="non-scaling-stroke"  transform=" translate(-2149.94, -1611.07)" d="M 2149.93982 1590.08238 L 2149.93982 1590.08238 C 2155.5055312561876 1590.08238 2160.843285469485 1592.2933501877621 2164.7788376408616 1596.2289023591384 C 2168.714389812238 1600.1644545305148 2170.92536 1605.5022087438126 2170.92536 1611.06792 L 2170.92536 1611.06799 C 2170.92536 1622.6579781861165 2161.5298181861167 1632.05352 2149.9398300000003 1632.05352 L 2149.9398300000003 1632.05352 C 2138.3498307681884 1632.05352 2128.9542800000004 1622.6579692318114 2128.9542800000004 1611.0679699999998 L 2128.9542800000004 1611.0679699999998 C 2128.9542800000004 1605.5022587438125 2131.1652501877625 1600.1645045305147 2135.100802359139 1596.2289523591382 C 2139.0363545305154 1592.293400187762 2144.374108743813 1590.08243 2149.9398200000005 1590.08243 Z" stroke-linecap="round" />
</g>
<g transform="matrix(-0.36 0 0 -0.36 350.91 579.98)" id="Layer_1"  >
<path style="stroke: none; stroke-width: 1; stroke-dasharray: none; stroke-linecap: butt; stroke-dashoffset: 0; stroke-linejoin: miter; stroke-miterlimit: 4; fill: rgb(0,0,0); fill-rule: nonzero; opacity: 1;" vector-effect="non-scaling-stroke"  transform=" translate(-974.75, -1611.07)" d="M 974.74672 1548.11122 L 974.74685 1548.11122 C 991.4439890728919 1548.11122 1007.4572567998637 1554.7441326704231 1019.2639170647203 1566.5507929352798 C 1031.070577329577 1578.3574532001364 1037.70349 1594.3707209271083 1037.70349 1611.06786 L 1037.70349 1611.0680900000002 C 1037.70349 1627.765229072892 1031.0705773295772 1643.778496799864 1019.2639170647204 1655.5851570647205 C 1007.4572567998637 1667.3918173295772 991.443989072892 1674.0247300000003 974.7468500000001 1674.0247300000003 L 974.7467200000001 1674.0247300000003 C 958.0495555380103 1674.0247379565042 942.0362613243753 1667.391818039878 930.2295840443961 1655.5851388845347 C 918.4229067644169 1643.7784597291914 911.7899893913307 1627.7651644619884 911.79 1611.068 L 911.79 1611.06787 C 911.79 1576.2978502131753 939.9766702131751 1548.11118 974.74669 1548.11118 Z" stroke-linecap="round" />
</g>
<g transform="matrix(-0.36 0 0 -0.36 275.36 579.98)" id="Layer_1"  >
<path style="stroke: none; stroke-width: 1; stroke-dasharray: none; stroke-linecap: butt; stroke-dashoffset: 0; stroke-linejoin: miter; stroke-miterlimit: 4; fill: rgb(0,0,0); fill-rule: nonzero; opacity: 1;" vector-effect="non-scaling-stroke"  transform=" translate(-764.89, -1611.07)" d="M 764.89087 1590.08242 L 764.89087 1590.08242 C 776.4808581861165 1590.08242 785.8764 1599.4779618138832 785.8764 1611.0679499999999 L 785.8764 1611.06803 C 785.8764 1622.6580181861166 776.4808581861165 1632.0535599999998 764.89087 1632.0535599999998 L 764.89087 1632.0535599999998 C 759.3251560916477 1632.0535599999998 753.9873993348107 1629.8425887586693 750.0518452880706 1625.907034711929 C 746.1162912413304 1621.971480665189 743.90532 1616.633723908352 743.90532 1611.0680099999997 L 743.90532 1611.0680099999997 C 743.90532 1605.5022960916474 746.1162912413304 1600.1645393348106 750.0518452880706 1596.2289852880704 C 753.9873993348107 1592.2934312413302 759.3251560916477 1590.0824599999996 764.89087 1590.0824599999996 Z" stroke-linecap="round" />
</g>
<g transform="matrix(-0.36 0 0 -0.36 350.91 459.11)" id="Layer_1"  >
<path style="stroke: none; stroke-width: 1; stroke-dasharray: none; stroke-linecap: butt; stroke-dashoffset: 0; stroke-linejoin: miter; stroke-miterlimit: 4; fill: rgb(0,0,0); fill-rule: nonzero; opacity: 1;" vector-effect="non-scaling-stroke"  transform=" translate(-974.75, -1275.3)" d="M 974.74672 1212.34176 L 974.74685 1212.34176 C 991.4439890728919 1212.34176 1007.4572567998637 1218.9746726704232 1019.2639170647203 1230.7813329352798 C 1031.070577329577 1242.5879932001365 1037.70349 1258.6012609271083 1037.70349 1275.2984000000001 L 1037.70349 1275.2986300000002 C 1037.70349 1291.995769072892 1031.0705773295772 1308.009036799864 1019.2639170647204 1319.8156970647206 C 1007.4572567998637 1331.6223573295772 991.443989072892 1338.2552700000003 974.7468500000001 1338.2552700000003 L 974.7467200000001 1338.2552700000003 C 958.0495624684536 1338.2552779564976 942.0362743166844 1331.6223635307163 930.229598186541 1319.8156930266646 C 918.4229220563976 1308.009022522613 911.7899999999979 1291.9957375315482 911.79 1275.29858 L 911.79 1275.29845 C 911.79 1240.5284302131752 939.9766702131751 1212.34176 974.74669 1212.34176 Z" stroke-linecap="round" />
</g>
<g transform="matrix(-0.36 0 0 -0.36 275.36 459.11)" id="Layer_1"  >
<path style="stroke: none; stroke-width: 1; stroke-dasharray: none; stroke-linecap: butt; stroke-dashoffset: 0; stroke-linejoin: miter; stroke-miterlimit: 4; fill: rgb(0,0,0); fill-rule: nonzero; opacity: 1;" vector-effect="non-scaling-stroke"  transform=" translate(-764.89, -1275.3)" d="M 764.89087 1254.313 L 764.89087 1254.313 C 776.4808581861165 1254.313 785.8764 1263.7085418138834 785.8764 1275.29853 L 785.8764 1275.29861 C 785.8764 1286.8885981861167 776.4808581861165 1296.28414 764.89087 1296.28414 L 764.89087 1296.28414 C 759.3251560916477 1296.28414 753.9873993348107 1294.0731687586695 750.0518452880706 1290.1376147119292 C 746.1162912413304 1286.202060665189 743.90532 1280.8643039083522 743.90532 1275.2985899999999 L 743.90532 1275.2985899999999 C 743.9053093913273 1269.73286916121 746.1162759493408 1264.3951021282332 750.0518311459172 1260.4595394301996 C 753.9873863424934 1256.523976732166 759.3251491612 1254.31299999999 764.89087 1254.313 Z" stroke-linecap="round" />
</g>
<g transform="matrix(0 -0.36 0.36 0 592.66 353.34)" id="Layer_1"  >
<path style="stroke: none; stroke-width: 1; stroke-dasharray: none; stroke-linecap: butt; stroke-dashoffset: 0; stroke-linejoin: miter; stroke-miterlimit: 4; fill: rgb(0,0,0); fill-rule: nonzero; opacity: 1;" vector-effect="non-scaling-stroke"  transform=" translate(-1646.29, -981.5)" d="M 1646.28562 918.54342 L 1646.28575 918.54342 C 1662.9828943772216 918.54342 1678.9961671912718 925.1763347775599 1690.802831206856 936.9829987931441 C 1702.6094952224403 948.7896628087284 1709.24241 964.8029356227784 1709.24241 981.50008 L 1709.24241 981.50027 C 1709.24241 998.1974117250568 1702.6094962760085 1014.2106819955677 1690.802834135788 1026.017344135788 C 1678.9961719955677 1037.8240062760087 1662.9829017250568 1044.45692 1646.28576 1044.45692 L 1646.28563 1044.45692 C 1611.5156157360227 1044.45692 1583.32895 1016.2702542639774 1583.32895 981.5002400000001 L 1583.32895 981.50008 C 1583.3289555228469 946.7300751641131 1611.515615164113 918.5434199999995 1646.28562 918.54342 Z" stroke-linecap="round" />
</g>
<g transform="matrix(0 -0.36 0.36 0 592.66 277.79)" id="Layer_1"  >
<path style="stroke: none; stroke-width: 1; stroke-dasharray: none; stroke-linecap: butt; stroke-dashoffset: 0; stroke-linejoin: miter; stroke-miterlimit: 4; fill: rgb(0,0,0); fill-rule: nonzero; opacity: 1;" vector-effect="non-scaling-stroke"  transform=" translate(-1646.29, -771.64)" d="M 1646.28565 750.65873 L 1646.28565 750.65873 C 1657.8756381861167 750.65873 1667.27118 760.0542718138835 1667.27118 771.64426 L 1667.27118 771.64434 C 1667.27118 783.2343281861166 1657.8756381861167 792.6298700000001 1646.28565 792.6298700000001 L 1646.28565 792.6298700000001 C 1640.7199360916477 792.6298700000001 1635.3821793348109 790.4188987586697 1631.4466252880707 786.4833447119295 C 1627.5110712413305 782.5477906651894 1625.3001 777.2100339083523 1625.3001 771.6443200000001 L 1625.3001 771.6443200000001 C 1625.300089391327 766.0785991612101 1627.5110559493407 760.7408321282333 1631.4466111459171 756.8052694301996 C 1635.3821663424933 752.8697067321658 1640.7199291611998 750.6587299999899 1646.28565 750.65873 Z" stroke-linecap="round" />
</g>
<g transform="matrix(0 -0.36 0.36 0 456.68 353.34)" id="Layer_1"  >
<path style="stroke: none; stroke-width: 1; stroke-dasharray: none; stroke-linecap: butt; stroke-dashoffset: 0; stroke-linejoin: miter; stroke-miterlimit: 4; fill: rgb(0,0,0); fill-rule: nonzero; opacity: 1;" vector-effect="non-scaling-stroke"  transform=" translate(-1268.55, -981.5)" d="M 1268.545 918.54342 L 1268.54513 918.54342 C 1285.2422743772215 918.54342 1301.2555471912717 925.1763347775599 1313.0622112068559 936.9829987931441 C 1324.8688752224402 948.7896628087284 1331.50179 964.8029356227784 1331.50179 981.50008 L 1331.50179 981.50028 C 1331.50179 998.1974190728919 1324.868877329577 1014.2106867998637 1313.0622170647202 1026.0173470647203 C 1301.2555567998636 1037.824007329577 1285.2422890728917 1044.45692 1268.54515 1044.45692 L 1268.54502 1044.45692 C 1233.7750002131752 1044.45692 1205.58833 1016.2702497868249 1205.58833 981.5002300000001 L 1205.58833 981.5000800000001 C 1205.5883355228468 946.7300751641133 1233.7749951641126 918.5434199999995 1268.545 918.54342 Z" stroke-linecap="round" />
</g>
<g transform="matrix(0 -0.36 0.36 0 456.68 277.79)" id="Layer_1"  >
<path style="stroke: none; stroke-width: 1; stroke-dasharray: none; stroke-linecap: butt; stroke-dashoffset: 0; stroke-linejoin: miter; stroke-miterlimit: 4; fill: rgb(0,0,0); fill-rule: nonzero; opacity: 1;" vector-effect="non-scaling-stroke"  transform=" translate(-1268.54, -771.64)" d="M 1268.545 750.65873 L 1268.545 750.65873 C 1280.1349881861167 750.65873 1289.53053 760.0542718138835 1289.53053 771.64426 L 1289.53053 771.64434 C 1289.53053 783.2343281861166 1280.1349881861167 792.6298700000001 1268.545 792.6298700000001 L 1268.545 792.6298700000001 C 1262.9792860916477 792.6298700000001 1257.641529334811 790.4188987586697 1253.7059752880707 786.4833447119295 C 1249.7704212413305 782.5477906651894 1247.55945 777.2100339083523 1247.55945 771.6443200000001 L 1247.55945 771.6443200000001 C 1247.55945 766.0786060916479 1249.7704212413305 760.7408493348108 1253.7059752880707 756.8052952880707 C 1257.641529334811 752.8697412413305 1262.9792860916477 750.6587700000001 1268.545 750.6587700000001 Z" stroke-linecap="round" />
</g>
<g transform="matrix(0 0.36 -0.36 0 456.68 685.75)" id="Layer_1"  >
<path style="stroke: none; stroke-width: 1; stroke-dasharray: none; stroke-linecap: butt; stroke-dashoffset: 0; stroke-linejoin: miter; stroke-miterlimit: 4; fill: rgb(0,0,0); fill-rule: nonzero; opacity: 1;" vector-effect="non-scaling-stroke"  transform=" translate(-1268.54, -1904.87)" d="M 1268.54493 1841.90951 L 1268.54506 1841.90951 C 1303.315041126892 1841.90951 1331.5016799999999 1870.0961488731075 1331.5016799999999 1904.8661299999999 L 1331.5016799999999 1904.86636 C 1331.501674695671 1921.5635043772218 1324.8687548310331 1937.5767750841355 1313.062087064721 1949.3834353489924 C 1301.2554192984092 1961.1900956138493 1285.2421443772218 1967.8230053043308 1268.545 1967.823 L 1268.5448700000002 1967.823 C 1251.8477229706136 1967.823 1235.8344476130246 1961.1900841688719 1224.0277817220765 1949.3834182779237 C 1212.2211158311284 1937.5767523869758 1205.5882000000001 1921.5634770293866 1205.5882000000001 1904.86633 L 1205.5882000000001 1904.8662000000002 C 1205.5882000000001 1870.0961691674804 1233.7748791674803 1841.9094900000002 1268.54491 1841.9094900000002 Z" stroke-linecap="round" />
</g>
<g transform="matrix(0 0.36 -0.36 0 456.68 761.3)" id="Layer_1"  >
<path style="stroke: none; stroke-width: 1; stroke-dasharray: none; stroke-linecap: butt; stroke-dashoffset: 0; stroke-linejoin: miter; stroke-miterlimit: 4; fill: rgb(0,0,0); fill-rule: nonzero; opacity: 1;" vector-effect="non-scaling-stroke"  transform=" translate(-1268.54, -2114.72)" d="M 1268.545 2093.73657 L 1268.545 2093.73657 C 1274.1107059518577 2093.73657 1279.4484550780771 2095.9475380806252 1283.384003498726 2099.883086501274 C 1287.3195519193748 2103.818634921923 1289.53052 2109.1563840481426 1289.53052 2114.72209 L 1289.53052 2114.72217 C 1289.53052 2120.2878812561876 1287.319549812238 2125.625635469485 1283.3839976408617 2129.5611876408616 C 1279.4484454694853 2133.496739812238 1274.1106912561875 2135.70771 1268.5449800000001 2135.70771 L 1268.5449800000001 2135.70771 C 1262.9792687438128 2135.70771 1257.641514530515 2133.496739812238 1253.7059623591385 2129.5611876408616 C 1249.7704101877623 2125.625635469485 1247.5594400000002 2120.287881256187 1247.5594400000002 2114.72217 L 1247.5594400000002 2114.72217 C 1247.5594400000002 2109.156453439483 1249.7704122948992 2103.818694139107 1253.7059682170031 2099.883138217003 C 1257.641524139107 2095.947582294899 1262.9792834394832 2093.73661 1268.5450000000003 2093.73661 Z" stroke-linecap="round" />
</g>
<g transform="matrix(0 0.36 -0.36 0 592.66 685.75)" id="Layer_1"  >
<path style="stroke: none; stroke-width: 1; stroke-dasharray: none; stroke-linecap: butt; stroke-dashoffset: 0; stroke-linejoin: miter; stroke-miterlimit: 4; fill: rgb(0,0,0); fill-rule: nonzero; opacity: 1;" vector-effect="non-scaling-stroke"  transform=" translate(-1646.29, -1904.87)" d="M 1646.28551 1841.90939 L 1646.2856399999998 1841.90939 C 1681.0556597868247 1841.90939 1709.2423299999998 1870.0960602131752 1709.2423299999998 1904.86608 L 1709.2423299999998 1904.86627 C 1709.2423299999998 1939.6362566497398 1681.0556866497398 1967.8229 1646.2857 1967.8229 L 1646.28557 1967.8229 C 1611.5155446903277 1967.8229 1583.32887 1939.6362253096722 1583.32887 1904.8662 L 1583.32887 1904.8660399999999 C 1583.32887 1888.168898274943 1589.9617837239914 1872.1556280044322 1601.768445864212 1860.3489658642118 C 1613.5751080044324 1848.5423037239912 1629.5883782749434 1841.9093899999998 1646.2855200000001 1841.9093899999998 Z" stroke-linecap="round" />
</g>
<g transform="matrix(0 0.36 -0.36 0 592.66 761.3)" id="Layer_1"  >
<path style="stroke: none; stroke-width: 1; stroke-dasharray: none; stroke-linecap: butt; stroke-dashoffset: 0; stroke-linejoin: miter; stroke-miterlimit: 4; fill: rgb(0,0,0); fill-rule: nonzero; opacity: 1;" vector-effect="non-scaling-stroke"  transform=" translate(-1646.29, -2114.72)" d="M 1646.28565 2093.73644 L 1646.28565 2093.73644 C 1657.8756492318116 2093.73644 1667.2712000000001 2103.131990768188 1667.2712000000001 2114.72199 L 1667.2712000000001 2114.72205 C 1667.2712000000001 2126.3120381861163 1657.8756581861167 2135.70758 1646.2856700000002 2135.70758 L 1646.2856700000002 2135.70758 C 1634.6956707681886 2135.70758 1625.30012 2126.3120292318117 1625.30012 2114.72203 L 1625.30012 2114.72198 C 1625.30012 2103.1319918138834 1634.6956618138836 2093.73645 1646.28565 2093.73645 Z" stroke-linecap="round" />
</g>
<g transform="matrix(0.36 0 0 0.36 456.68 579.98)" id="Layer_1"  >
<path style="stroke: none; stroke-width: 1; stroke-dasharray: none; stroke-linecap: butt; stroke-dashoffset: 0; stroke-linejoin: miter; stroke-miterlimit: 4; fill: rgb(0,0,0); fill-rule: nonzero; opacity: 1;" vector-effect="non-scaling-stroke"  transform=" translate(-1268.55, -1611.07)" d="M 1268.545 1506.14 L 1268.5452300000002 1506.14 C 1326.495252433226 1506.1400386599169 1373.473005522858 1553.1178275667617 1373.473 1611.06785 L 1373.473 1611.0680599999998 C 1373.473 1669.0181279560754 1326.4951879560756 1715.9959399999998 1268.54512 1715.9959399999998 L 1268.54491 1715.9959399999998 C 1240.7163192409196 1715.9959399999998 1214.0275151084218 1704.9410753648 1194.3497298718107 1685.263290128189 C 1174.6719446351997 1665.585504891578 1163.61708 1638.8967007590802 1163.61708 1611.0681099999997 L 1163.61708 1611.0678599999997 C 1163.6170799999954 1583.2392508887601 1174.6719560321696 1556.5504300328503 1194.349759871808 1536.8726374453959 C 1214.027563711446 1517.1948448579412 1240.716390888765 1506.1399840870047 1268.5449999999998 1506.14 Z" stroke-linecap="round" />
</g>
<g transform="matrix(0.36 0 0 0.36 592.66 579.98)" id="Layer_1"  >
<path style="stroke: none; stroke-width: 1; stroke-dasharray: none; stroke-linecap: butt; stroke-dashoffset: 0; stroke-linejoin: miter; stroke-miterlimit: 4; fill: rgb(0,0,0); fill-rule: nonzero; opacity: 1;" vector-effect="non-scaling-stroke"  transform=" translate(-1646.29, -1611.07)" d="M 1646.28559 1506.14 L 1646.28582 1506.14 C 1674.1144134112453 1506.14 1700.8032200872824 1517.1948656887682 1720.4810071992572 1536.872652800743 C 1740.158794311232 1556.5504399127178 1751.2136600000001 1583.239246588755 1751.2136600000001 1611.0678400000002 L 1751.2136600000001 1611.06805 C 1751.2136600000001 1669.0181179560757 1704.2358479560758 1715.99593 1646.2857800000002 1715.99593 L 1646.2855700000002 1715.99593 C 1618.4569792409197 1715.99593 1591.768175108422 1704.9410653648004 1572.0903898718109 1685.2632801281893 C 1552.4126046351998 1665.5854948915783 1541.3577400000001 1638.8966907590805 1541.3577400000001 1611.0681 L 1541.3577400000001 1611.06785 C 1541.3577455228467 1553.117800900105 1588.3355409001051 1506.1400055228469 1646.28559 1506.14 Z" stroke-linecap="round" />
</g>
</svg>